<svg width="600" height="600" viewBox="0 0 600 600" fill="none" xmlns="http://www.w3.org/2000/svg">
<mask id="mask0_3_25" style="mask-type:alpha" maskUnits="userSpaceOnUse" x="0" y="0" width="600" height="600">
<circle cx="300" cy="300" r="300" fill="#DCC8AA"/>
</mask>
<g mask="url(#mask0_3_25)">
<line x1="-1" y1="299.5" x2="599" y2="299.5" stroke="#F1F5F9" stroke-opacity="0.38"/>
<line x1="-1" y1="213.5" x2="599" y2="213.5" stroke="#F1F5F9" stroke-opacity="0.38"/>
<line x1="-1" y1="386.5" x2="599" y2="386.5" stroke="#F1F5F9" stroke-opacity="0.38"/>
<line x1="-1" y1="559.5" x2="599" y2="559.5" stroke="#F1F5F9" stroke-opacity="0.38"/>
<line x1="148.567" y1="559.558" x2="448.567" y2="39.9424" stroke="#F1F5F9" stroke-opacity="0.38"/>
<line x1="221.849" y1="606.913" x2="549.284" y2="39.7791" stroke="#F1F5F9" stroke-opacity="0.38"/>
<line x1="321.567" y1="606.913" x2="649.002" y2="39.7791" stroke="#F1F5F9" stroke-opacity="0.38"/>
<line x1="422.567" y1="606.913" x2="750.002" y2="39.7791" stroke="#F1F5F9" stroke-opacity="0.38"/>
<line x1="49.8413" y1="558.297" x2="384.293" y2="-20.9895" stroke="#F1F5F9" stroke-opacity="0.38"/>
<line x1="-50.433" y1="558.297" x2="284.018" y2="-20.9895" stroke="#F1F5F9" stroke-opacity="0.38"/>
<line x1="-151.433" y1="560.297" x2="183.018" y2="-18.9895" stroke="#F1F5F9" stroke-opacity="0.38"/>
<line x1="149.433" y1="39.9424" x2="449.433" y2="559.558" stroke="#F1F5F9" stroke-opacity="0.38"/>
<line x1="225.731" y1="-1.42226" x2="549.135" y2="558.73" stroke="#F1F5F9" stroke-opacity="0.38"/>
<line x1="283.433" y1="-73.25" x2="606.837" y2="486.902" stroke="#F1F5F9" stroke-opacity="0.38"/>
<line x1="367.433" y1="-102.25" x2="690.837" y2="457.902" stroke="#F1F5F9" stroke-opacity="0.38"/>
<line x1="50.6151" y1="41.8372" x2="376.251" y2="605.855" stroke="#F1F5F9" stroke-opacity="0.38"/>
<line x1="-50.617" y1="40.9712" x2="279.483" y2="612.721" stroke="#F1F5F9" stroke-opacity="0.38"/>
<line x1="-151.567" y1="39.9424" x2="148.433" y2="559.558" stroke="#F1F5F9" stroke-opacity="0.38"/>
<line x1="546" y1="126.5" x2="54" y2="126.5" stroke="#F1F5F9" stroke-opacity="0.38"/>
<line x1="546" y1="39.5" x2="54" y2="39.5" stroke="#F1F5F9" stroke-opacity="0.38"/>
<line x1="546" y1="472.5" x2="54" y2="472.5" stroke="#F1F5F9" stroke-opacity="0.38"/>
<g opacity="0.5">
<circle cx="299" cy="300" r="100" stroke="#F1F5F9" stroke-width="1.5"/>
<circle cx="299" cy="127" r="100" stroke="#F1F5F9" stroke-width="1.5"/>
<circle cx="200" cy="127" r="100" stroke="#F1F5F9" stroke-width="1.5"/>
<circle cx="249" cy="40" r="100" stroke="#F1F5F9" stroke-width="1.5"/>
<circle cx="199" cy="-47" r="100" stroke="#F1F5F9" stroke-width="1.5"/>
<circle cx="249" cy="560" r="100" stroke="#F1F5F9" stroke-width="1.5"/>
<circle cx="349" cy="40" r="100" stroke="#F1F5F9" stroke-width="1.5"/>
<circle cx="300" cy="-47" r="100" stroke="#F1F5F9" stroke-width="1.5"/>
<circle cx="399" cy="-47" r="100" stroke="#F1F5F9" stroke-width="1.5"/>
<circle cx="449" cy="40" r="100" stroke="#F1F5F9" stroke-width="1.5"/>
<circle cx="549" cy="40" r="100" stroke="#F1F5F9" stroke-width="1.5"/>
<circle cx="600" cy="127" r="100" stroke="#F1F5F9" stroke-width="1.5"/>
<circle cx="649" cy="213" r="100" stroke="#F1F5F9" stroke-width="1.5"/>
<circle cx="649" cy="386" r="100" stroke="#F1F5F9" stroke-width="1.5"/>
<circle cx="600" cy="473" r="100" stroke="#F1F5F9" stroke-width="1.5"/>
<circle cx="549" cy="560" r="100" stroke="#F1F5F9" stroke-width="1.5"/>
<circle cx="399" cy="647" r="100" stroke="#F1F5F9" stroke-width="1.5"/>
<circle cx="300" cy="647" r="100" stroke="#F1F5F9" stroke-width="1.5"/>
<circle cx="199" cy="647" r="100" stroke="#F1F5F9" stroke-width="1.5"/>
<circle cx="50" cy="560" r="100" stroke="#F1F5F9" stroke-width="1.5"/>
<circle cx="349" cy="560" r="100" stroke="#F1F5F9" stroke-width="1.5"/>
<circle cx="199" cy="473" r="100" stroke="#F1F5F9" stroke-width="1.5"/>
<circle cx="98" cy="473" r="100" stroke="#F1F5F9" stroke-width="1.5"/>
<circle cx="149" cy="560" r="100" stroke="#F1F5F9" stroke-width="1.5"/>
<circle cx="-1" cy="473" r="100" stroke="#F1F5F9" stroke-width="1.5"/>
<circle cx="449" cy="560" r="100" stroke="#F1F5F9" stroke-width="1.5"/>
<circle cx="100" cy="127" r="100" stroke="#F1F5F9" stroke-width="1.5"/>
<circle cx="499" cy="473" r="100" stroke="#F1F5F9" stroke-width="1.5"/>
<circle cx="499" cy="127" r="100" stroke="#F1F5F9" stroke-width="1.5"/>
<circle cx="400" cy="127" r="100" stroke="#F1F5F9" stroke-width="1.5"/>
<circle cx="400" cy="473" r="100" stroke="#F1F5F9" stroke-width="1.5"/>
<circle cx="149" cy="213" r="100" stroke="#F1F5F9" stroke-width="1.5"/>
<circle cx="149" cy="386" r="100" stroke="#F1F5F9" stroke-width="1.5"/>
<circle cx="449" cy="213" r="100" stroke="#F1F5F9" stroke-width="1.5"/>
<circle cx="449" cy="386" r="100" stroke="#F1F5F9" stroke-width="1.5"/>
<circle cx="299" cy="473" r="100" stroke="#F1F5F9" stroke-width="1.5"/>
<circle cx="349" cy="213" r="100" stroke="#F1F5F9" stroke-width="1.5"/>
<circle cx="249" cy="213" r="100" stroke="#F1F5F9" stroke-width="1.5"/>
<circle cx="249" cy="386" r="100" stroke="#F1F5F9" stroke-width="1.5"/>
<circle cx="350" cy="386" r="100" stroke="#F1F5F9" stroke-width="1.5"/>
<circle cx="399" cy="300" r="100" stroke="#F1F5F9" stroke-width="1.5"/>
<circle cx="499" cy="300" r="100" stroke="#F1F5F9" stroke-width="1.5"/>
<circle cx="99" cy="300" r="100" stroke="#F1F5F9" stroke-width="1.5"/>
<circle cx="199" cy="300" r="100" stroke="#F1F5F9" stroke-width="1.5"/>
<circle cx="49" cy="386" r="100" stroke="#F1F5F9" stroke-width="1.5"/>
<circle cx="-51" cy="386" r="100" stroke="#F1F5F9" stroke-width="1.5"/>
<circle cx="549" cy="386" r="100" stroke="#F1F5F9" stroke-width="1.5"/>
<circle cx="49" cy="213" r="100" stroke="#F1F5F9" stroke-width="1.5"/>
<circle cx="-1" cy="300" r="100" stroke="#F1F5F9" stroke-width="1.5"/>
<circle cx="-51" cy="215" r="100" stroke="#F1F5F9" stroke-width="1.5"/>
<circle cx="-1" cy="126" r="100" stroke="#F1F5F9" stroke-width="1.5"/>
<circle cx="49" cy="40" r="100" stroke="#F1F5F9" stroke-width="1.5"/>
<circle cx="150" cy="39" r="100" stroke="#F1F5F9" stroke-width="1.5"/>
<circle cx="599" cy="300" r="100" stroke="#F1F5F9" stroke-width="1.5"/>
<circle cx="549" cy="213" r="100" stroke="#F1F5F9" stroke-width="1.5"/>
</g>
</g>
</svg>
